<svg class="MuiSvgIcon-root MuiSvgIcon-fontSizeMedium css-b933ss" focusable="false" aria-hidden="true" viewBox="0 0 20 20" width="20" height="20" fill="none" xmlns="http://www.w3.org/2000/svg"><path d="M20 13.3333V20H13.3333C12.1642 19.9988 11.016 19.6902 10.0039 19.1051C8.99172 18.5201 8.15121 17.6791 7.56667 16.6667C8.19489 16.6622 8.82098 16.5929 9.435 16.46C9.90262 17.0447 10.4958 17.5167 11.1707 17.841C11.8455 18.1653 12.5846 18.3335 13.3333 18.3333H18.3333V13.3333C18.3331 12.5844 18.1643 11.845 17.8395 11.1702C17.5146 10.4954 17.042 9.90229 16.4567 9.435C16.5907 8.8211 16.6611 8.19501 16.6667 7.56667C17.6791 8.15121 18.5201 8.99172 19.1051 10.0039C19.6902 11.016 19.9988 12.1642 20 13.3333ZM15 7.5C15 5.51088 14.2098 3.60322 12.8033 2.1967C11.3968 0.790176 9.48912 0 7.5 0C5.51088 0 3.60322 0.790176 2.1967 2.1967C0.790176 3.60322 0 5.51088 0 7.5L0 15H7.5C9.48845 14.9978 11.3948 14.2069 12.8009 12.8009C14.2069 11.3948 14.9978 9.48845 15 7.5ZM1.66667 7.5C1.66667 6.34628 2.00879 5.21846 2.64976 4.25917C3.29074 3.29989 4.20178 2.55221 5.26768 2.1107C6.33358 1.66919 7.50647 1.55367 8.63803 1.77875C9.76958 2.00383 10.809 2.5594 11.6248 3.37521C12.4406 4.19102 12.9962 5.23042 13.2212 6.36197C13.4463 7.49353 13.3308 8.66642 12.8893 9.73232C12.4478 10.7982 11.7001 11.7093 10.7408 12.3502C9.78154 12.9912 8.65372 13.3333 7.5 13.3333H1.66667V7.5Z" fill="black"/></svg>