<svg class="MuiSvgIcon-root MuiSvgIcon-fontSizeMedium css-b933ss" focusable="false" aria-hidden="true" viewBox="0 0 20 20" width="20" height="20" fill="none" xmlns="http://www.w3.org/2000/svg"><g clip-path="url(#clip0_3475_2774)"><path d="M1.66667 17.48V-0.0200195H0V17.48C0 18.143 0.263392 18.7789 0.732233 19.2477C1.20107 19.7166 1.83696 19.98 2.5 19.98H20V18.3133H2.5C2.27899 18.3133 2.06702 18.2255 1.91074 18.0692C1.75446 17.913 1.66667 17.701 1.66667 17.48Z" fill="black"/><path d="M18.7502 3.31348H14.1669L16.4944 5.64098L12.9169 9.21848L11.2502 7.55181L5.23438 13.5676L6.41687 14.7501L11.2544 9.91681L12.921 11.5835L17.6769 6.82764L20.0002 9.14681V4.56348C20.0002 4.23196 19.8685 3.91401 19.6341 3.67959C19.3997 3.44517 19.0817 3.31348 18.7502 3.31348Z" fill="black"/></g><defs><clipPath id="clip0_3475_2774"><rect width="20" height="20" fill="white"/></clipPath></defs></svg>