<svg class="MuiSvgIcon-root MuiSvgIcon-fontSizeMedium css-b933ss" focusable="false" aria-hidden="true" viewBox="0 0 20 20" width="20" height="20" fill="none" xmlns="http://www.w3.org/2000/svg"><g clip-path="url(#clip0_3475_3959)"><path d="M19.1017 1.41671C18.821 1.18149 18.4919 1.01112 18.1379 0.917774C17.7838 0.824429 17.4135 0.810407 17.0533 0.87671L11.9033 1.81254C11.1664 1.94542 10.4958 2.323 10 2.88421C9.50459 2.32207 8.83395 1.94359 8.09667 1.81004L2.94667 0.87421C2.58647 0.808803 2.21631 0.8233 1.86234 0.916675C1.50836 1.01005 1.17921 1.18002 0.898151 1.41459C0.617088 1.64915 0.390969 1.94258 0.235772 2.27414C0.0805755 2.6057 8.89544e-05 2.96729 0 3.33338L0 17.3617L10 19.1809L20 17.3617V3.33338C20 2.96756 19.9196 2.60622 19.7643 2.27498C19.6091 1.94374 19.3828 1.65072 19.1017 1.41671ZM9.16667 17.3334L1.66667 15.9717V3.33338C1.66677 3.21137 1.69366 3.09087 1.74545 2.9804C1.79723 2.86992 1.87264 2.77217 1.96635 2.69403C2.06006 2.6159 2.16979 2.5593 2.28777 2.52823C2.40576 2.49716 2.52913 2.49237 2.64917 2.51421L7.79833 3.45004C8.18235 3.51991 8.52967 3.72235 8.77973 4.02205C9.02979 4.32176 9.16673 4.69972 9.16667 5.09004V17.3334ZM18.3333 15.97L10.8333 17.3334V5.09004C10.8333 4.69972 10.9702 4.32176 11.2203 4.02205C11.4703 3.72235 11.8176 3.51991 12.2017 3.45004L17.3508 2.51421C17.4709 2.49237 17.5942 2.49716 17.7122 2.52823C17.8302 2.5593 17.9399 2.6159 18.0336 2.69403C18.1274 2.77217 18.2028 2.86992 18.2546 2.9804C18.3063 3.09087 18.3332 3.21137 18.3333 3.33338V15.97Z" fill="black"/></g><defs><clipPath id="clip0_3475_3959"><rect width="20" height="20" fill="white"/></clipPath></defs></svg>