<svg xmlns="http://www.w3.org/2000/svg" viewBox="0 0 512 512" id="revenue">
  <defs>
    <linearGradient id="a" x1="455.287" x2="149.634" y1="30.183" y2="559.591" gradientUnits="userSpaceOnUse">
      <stop offset="0" stop-color="#f8ba16"></stop>
      <stop offset="1" stop-color="#e93728"></stop>
    </linearGradient>
  </defs>
  <path fill="url(#a)" d="m354.725,176.391c-8.062,0-14.62,6.559-14.62,14.62v14.366c0,8.061,6.559,14.619,14.62,14.619h107.25c8.062,0,14.62-6.559,14.62-14.619v-14.366c0-8.062-6.559-14.62-14.62-14.62h-107.25Zm109.87,14.62v14.366c0,1.42-1.2,2.619-2.62,2.619h-107.25c-1.42,0-2.62-1.199-2.62-2.619v-14.366c0-1.42,1.2-2.62,2.62-2.62h107.25c1.42,0,2.62,1.2,2.62,2.62Zm29.785,250.319H17.619c-7.51,0-13.619,6.109-13.619,13.619v12.699c0,7.51,6.109,13.62,13.619,13.62h476.761c7.51,0,13.62-6.11,13.62-13.62v-12.699c0-7.51-6.11-13.619-13.62-13.619Zm1.62,26.318c0,.878-.742,1.62-1.62,1.62H17.619c-.878,0-1.619-.742-1.619-1.62v-12.699c0-.878.741-1.619,1.619-1.619h476.761c.878,0,1.62.741,1.62,1.619v12.699Zm-19.405-224.638c0-8.062-6.559-14.62-14.62-14.62h-107.25c-8.062,0-14.62,6.559-14.62,14.62v14.365c0,8.062,6.559,14.62,14.62,14.62h107.25c8.062,0,14.62-6.559,14.62-14.62v-14.365Zm-12,14.365c0,1.42-1.2,2.62-2.62,2.62h-107.25c-1.42,0-2.62-1.2-2.62-2.62v-14.365c0-1.42,1.2-2.62,2.62-2.62h107.25c1.42,0,2.62,1.2,2.62,2.62v14.365Zm12,37.634c0-8.061-6.559-14.619-14.62-14.619h-107.25c-8.062,0-14.62,6.559-14.62,14.619v14.366c0,8.062,6.559,14.62,14.62,14.62h107.25c8.062,0,14.62-6.559,14.62-14.62v-14.366Zm-12,14.366c0,1.42-1.2,2.62-2.62,2.62h-107.25c-1.42,0-2.62-1.2-2.62-2.62v-14.366c0-1.42,1.2-2.619,2.62-2.619h107.25c1.42,0,2.62,1.199,2.62,2.619v14.366Zm12,37.634c0-8.061-6.559-14.619-14.62-14.619h-107.25c-8.062,0-14.62,6.559-14.62,14.619v14.366c0,8.062,6.559,14.62,14.62,14.62h107.25c8.062,0,14.62-6.559,14.62-14.62v-14.366Zm-12,14.366c0,1.42-1.2,2.62-2.62,2.62h-107.25c-1.42,0-2.62-1.2-2.62-2.62v-14.366c0-1.42,1.2-2.619,2.62-2.619h107.25c1.42,0,2.62,1.199,2.62,2.619v14.366Zm-2.62,23.015h-107.25c-8.062,0-14.62,6.559-14.62,14.619v14.366c0,8.061,6.559,14.619,14.62,14.619h107.25c8.062,0,14.62-6.559,14.62-14.619v-14.366c0-8.061-6.559-14.619-14.62-14.619Zm2.62,28.985c0,1.42-1.2,2.619-2.62,2.619h-107.25c-1.42,0-2.62-1.199-2.62-2.619v-14.366c0-1.42,1.2-2.619,2.62-2.619h107.25c1.42,0,2.62,1.199,2.62,2.619v14.366Zm-138.349-170.365c0-8.062-6.559-14.62-14.62-14.62h-107.251c-8.061,0-14.619,6.559-14.619,14.62v14.365c0,8.062,6.559,14.62,14.619,14.62h107.251c8.062,0,14.62-6.559,14.62-14.62v-14.365Zm-12,14.365c0,1.42-1.2,2.62-2.62,2.62h-107.251c-1.42,0-2.619-1.2-2.619-2.62v-14.365c0-1.42,1.199-2.62,2.619-2.62h107.251c1.42,0,2.62,1.2,2.62,2.62v14.365Zm12,37.634c0-8.061-6.559-14.619-14.62-14.619h-107.251c-8.061,0-14.619,6.559-14.619,14.619v14.366c0,8.062,6.559,14.62,14.619,14.62h107.251c8.062,0,14.62-6.559,14.62-14.62v-14.366Zm-12,14.366c0,1.42-1.2,2.62-2.62,2.62h-107.251c-1.42,0-2.619-1.2-2.619-2.62v-14.366c0-1.42,1.199-2.619,2.619-2.619h107.251c1.42,0,2.62,1.199,2.62,2.619v14.366Zm12,37.634c0-8.061-6.559-14.619-14.62-14.619h-107.251c-8.061,0-14.619,6.559-14.619,14.619v14.366c0,8.062,6.559,14.62,14.619,14.62h107.251c8.062,0,14.62-6.559,14.62-14.62v-14.366Zm-12,14.366c0,1.42-1.2,2.62-2.62,2.62h-107.251c-1.42,0-2.619-1.2-2.619-2.62v-14.366c0-1.42,1.199-2.619,2.619-2.619h107.251c1.42,0,2.62,1.199,2.62,2.619v14.366Zm-2.62,23.015h-107.251c-8.061,0-14.619,6.559-14.619,14.619v14.366c0,8.061,6.559,14.619,14.619,14.619h107.251c8.062,0,14.62-6.559,14.62-14.619v-14.366c0-8.061-6.559-14.619-14.62-14.619Zm2.62,28.985c0,1.42-1.2,2.619-2.62,2.619h-107.251c-1.42,0-2.619-1.199-2.619-2.619v-14.366c0-1.42,1.199-2.619,2.619-2.619h107.251c1.42,0,2.62,1.199,2.62,2.619v14.366ZM54.026,323.996h107.251c8.061,0,14.619-6.559,14.619-14.62v-14.366c0-8.061-6.559-14.619-14.619-14.619H54.026c-8.062,0-14.62,6.559-14.62,14.619v14.366c0,8.062,6.559,14.62,14.62,14.62Zm-2.62-28.986c0-1.42,1.2-2.619,2.62-2.619h107.251c1.42,0,2.619,1.199,2.619,2.619v14.366c0,1.42-1.199,2.62-2.619,2.62H54.026c-1.42,0-2.62-1.2-2.62-2.62v-14.366Zm2.62,80.986h107.251c8.061,0,14.619-6.559,14.619-14.62v-14.366c0-8.061-6.559-14.619-14.619-14.619H54.026c-8.062,0-14.62,6.559-14.62,14.619v14.366c0,8.062,6.559,14.62,14.62,14.62Zm-2.62-28.986c0-1.42,1.2-2.619,2.62-2.619h107.251c1.42,0,2.619,1.199,2.619,2.619v14.366c0,1.42-1.199,2.62-2.619,2.62H54.026c-1.42,0-2.62-1.2-2.62-2.62v-14.366Zm2.62,80.985h107.251c8.061,0,14.619-6.559,14.619-14.619v-14.366c0-8.061-6.559-14.619-14.619-14.619H54.026c-8.062,0-14.62,6.559-14.62,14.619v14.366c0,8.061,6.559,14.619,14.62,14.619Zm-2.62-28.985c0-1.42,1.2-2.619,2.62-2.619h107.251c1.42,0,2.619,1.199,2.619,2.619v14.366c0,1.42-1.199,2.619-2.619,2.619H54.026c-1.42,0-2.62-1.199-2.62-2.619v-14.366Zm-6.23-166.05c2.872,2.554,6.504,3.931,10.32,3.931.311,0,.623-.009.936-.027,76.327-4.568,150.616-22.193,220.803-52.385,58.524-25.176,112.883-58.588,161.757-99.405,1.776,6.01,7.109,10.607,13.721,11.126,8.548.664,16.07-5.745,16.74-14.297l2.546-31.836c.671-8.559-5.746-16.069-14.297-16.74l-31.835-2.546c-8.566-.68-16.07,5.747-16.741,14.308-.559,7.129,3.801,13.531,10.215,15.858-46.603,38.964-98.487,70.865-154.406,94.92-66.917,28.786-137.687,45.586-210.334,49.934-4.149.243-7.955,2.088-10.717,5.194-2.761,3.107-4.147,7.103-3.902,11.25.243,4.149,2.089,7.955,5.195,10.716Zm7.676-13.993c.632-.71,1.503-1.133,2.458-1.188,74.045-4.431,146.169-21.553,214.366-50.889,61.242-26.345,117.733-61.923,167.903-105.746,1.817-1.587,2.507-4.109,1.75-6.401-.758-2.291-2.813-3.906-5.22-4.098l-9.739-.778c-1.964-.154-3.436-1.877-3.282-3.841.146-1.869,1.716-3.294,3.553-3.294.092,0,.186.004.278.011l31.834,2.546c1.964.154,3.436,1.877,3.283,3.831l-2.546,31.836c-.154,1.964-1.889,3.425-3.841,3.281-1.963-.154-3.435-1.877-3.282-3.832l.629-7.87c.194-2.43-1.101-4.735-3.276-5.834-2.176-1.096-4.801-.771-6.641.828-50.475,43.879-107.195,79.518-168.587,105.927-68.906,29.642-141.841,46.944-216.771,51.43-.939.056-1.862-.262-2.574-.894-.71-.632-1.133-1.502-1.188-2.451s.262-1.862.893-2.573Z"></path>
</svg>
